# xmcd
#
# Track frame offsets:
# 150
# 11928
# 26395
# 37138
# 49838
# 62058
# 73570
# 83648
# 98305
# 111343
# 122557
# 138018
# 150163
# 163626
#
# Disc length: 2331 seconds
#
#
# Revision: 2
# Processed by: cddbd v1.5.2PL0 Copyright (c) Steve Scherf et al.
# Submitted via: FreeRIP 2.90 
#
DISCID=a709190e
DTITLE=Pena Branca e Xavantinho - 25 Anos - Musica com Qualidade
DYEAR=2012
DGENRE=Sertaneja
TTITLE0=O grande sertao
TTITLE1=Cuitelinho
TTITLE2=Perguntas
TTITLE3=O abolador
TTITLE4=Gente que vem de lisboa
TTITLE5=Cantiga
TTITLE6=Maria louca
TTITLE7=Encontro de mandeiras
TTITLE8=Moda e viola
TTITLE9=Calix bento
TTITLE10=Vaca estrela e boi fuba
TTITLE11=Cantiga do arco iris
TTITLE12=Casa de barro
TTITLE13=Amor de violeiro
EXTD=
EXTT0=
EXTT1=
EXTT2=
EXTT3=
EXTT4=
EXTT5=
EXTT6=
EXTT7=
EXTT8=
EXTT9=
EXTT10=
EXTT11=
EXTT12=
EXTT13=
PLAYORDER=
